<?xml version="1.0" encoding="utf-8"?>
<!-- Generator: Adobe Illustrator 21.0.2, SVG Export Plug-In . SVG Version: 6.00 Build 0)  -->
<svg version="1.1" id="Layer_1" xmlns="http://www.w3.org/2000/svg" xmlns:xlink="http://www.w3.org/1999/xlink" x="0px" y="0px"
	 viewBox="0 0 60.3 21" style="enable-background:new 0 0 60.3 21;" xml:space="preserve">
<style type="text/css">
	.st0{fill:#4A62AC;}
	.st1{fill:#FFFFFF;}
	.st2{font-family:'Helvetica-Bold';}
	.st3{font-size:11.8462px;}
</style>
<g>
	<g>
		<rect class="st0" width="60.3" height="21"/>
		<text transform="matrix(1 0 0 1 21.5372 14.8048)" class="st1 st2 st3">Share</text>
		<path class="st1" d="M17.5,14.8c0,0.8-0.3,1.4-0.8,1.9s-1.2,0.8-1.9,0.8h-1.8v-5.8h1.9l0.3-2.1h-2.2V8.3c0-0.3,0.1-0.6,0.3-0.8
			c0.2-0.2,0.5-0.3,0.9-0.3h1.2v-2c-0.6-0.1-1.2-0.1-1.7-0.1c-0.9,0-1.6,0.3-2,0.8C11,6.4,10.8,7.1,10.8,8v1.6H8.7v2.1h2.1v5.8H5.7
			c-0.7,0.1-1.3-0.2-1.9-0.8S3,15.5,3,14.8v-9C3,5,3.2,4.3,3.8,3.8S5,3,5.7,3h9.1c0.7,0,1.3,0.3,1.9,0.8s0.8,1.2,0.8,1.9V14.8
			L17.5,14.8z"/>
	</g>
</g>
</svg>
