<?xml version="1.0" encoding="utf-8"?>
<!-- Generator: Adobe Illustrator 21.0.2, SVG Export Plug-In . SVG Version: 6.00 Build 0)  -->
<svg version="1.1" id="Layer_1" xmlns="http://www.w3.org/2000/svg" xmlns:xlink="http://www.w3.org/1999/xlink" x="0px" y="0px"
	 viewBox="0 0 58.5 22" style="enable-background:new 0 0 58.5 22;" xml:space="preserve">
<style type="text/css">
	.st0{fill:#F1F1F2;stroke:#808184;stroke-miterlimit:10;}
	.st1{fill:#DA4536;}
	.st2{fill:#404041;}
</style>
<g>
	<path class="st0" d="M58,19.4c0,1.1-0.9,2.1-1.9,2.1H2.4c-1.1,0-1.9-0.9-1.9-2.1V2.6c0-1.1,0.9-2.1,1.9-2.1h53.7
		c1.1,0,1.9,0.9,1.9,2.1V19.4z"/>
	<g>
		<polygon class="st1" points="22.5,8.6 20.8,8.6 20.8,10.4 19,10.4 19,12.1 20.8,12.1 20.8,13.8 22.5,13.8 22.5,12.1 24.2,12.1 
			24.2,10.4 22.5,10.4 		"/>
		<path class="st1" d="M10.7,10.4v2.4h3.4c-0.3,1.5-1.5,2.5-3.4,2.5c-2,0-3.7-1.7-3.7-3.8s1.6-3.8,3.7-3.8c0.9,0,1.8,0.3,2.4,0.9
			l1.8-1.8c-1.1-1-2.5-1.6-4.2-1.6c-3.4,0-6.2,2.8-6.2,6.2s2.8,6.2,6.2,6.2c3.6,0,6-2.5,6-6.1c0-0.5-0.1-0.9-0.1-1.3H10.7z"/>
	</g>
	<g>
		<path class="st2" d="M28.4,12.8l1.4-0.2c0.1,0.3,0.2,0.5,0.4,0.6c0.2,0.1,0.4,0.2,0.8,0.2c0.4,0,0.6-0.1,0.8-0.2
			c0.1-0.1,0.2-0.2,0.2-0.4c0-0.1,0-0.2-0.1-0.3c-0.1-0.1-0.2-0.1-0.5-0.2c-1.1-0.2-1.8-0.5-2.1-0.7c-0.4-0.3-0.6-0.7-0.6-1.2
			c0-0.5,0.2-0.8,0.5-1.1C29.5,9.1,30,9,30.8,9c0.7,0,1.2,0.1,1.6,0.3c0.3,0.2,0.6,0.6,0.7,1l-1.3,0.2c-0.1-0.2-0.2-0.4-0.3-0.5
			C31.3,10,31.1,10,30.8,10c-0.4,0-0.6,0.1-0.8,0.2c-0.1,0.1-0.2,0.2-0.2,0.3c0,0.1,0,0.2,0.1,0.3c0.1,0.1,0.6,0.2,1.3,0.4
			c0.7,0.2,1.2,0.4,1.5,0.6c0.3,0.2,0.4,0.6,0.4,1c0,0.5-0.2,0.9-0.6,1.2c-0.4,0.3-1,0.5-1.8,0.5c-0.7,0-1.3-0.1-1.7-0.4
			C28.8,13.7,28.5,13.3,28.4,12.8z"/>
		<path class="st2" d="M35.9,7.1v2.6c0.4-0.5,1-0.8,1.6-0.8c0.3,0,0.6,0.1,0.9,0.2c0.3,0.1,0.4,0.3,0.6,0.5c0.1,0.2,0.2,0.4,0.3,0.6
			c0,0.2,0.1,0.6,0.1,1v3.1h-1.4v-2.8c0-0.5,0-0.9-0.1-1c-0.1-0.1-0.1-0.3-0.3-0.4C37.4,10.1,37.2,10,37,10c-0.2,0-0.4,0.1-0.6,0.2
			c-0.2,0.1-0.3,0.3-0.4,0.5c-0.1,0.2-0.1,0.6-0.1,1v2.6h-1.4V7.1H35.9z"/>
		<path class="st2" d="M41.7,10.7l-1.3-0.2c0.1-0.5,0.4-0.9,0.7-1.1C41.5,9.1,42,9,42.7,9C43.3,9,43.7,9,44,9.2
			c0.3,0.1,0.5,0.3,0.6,0.6c0.1,0.2,0.2,0.6,0.2,1.2l0,1.6c0,0.5,0,0.8,0.1,1c0,0.2,0.1,0.5,0.2,0.7h-1.4c0-0.1-0.1-0.2-0.1-0.4
			c0-0.1,0-0.1,0-0.2c-0.2,0.2-0.5,0.4-0.8,0.5c-0.3,0.1-0.6,0.2-0.9,0.2c-0.5,0-1-0.1-1.3-0.4c-0.3-0.3-0.5-0.7-0.5-1.1
			c0-0.3,0.1-0.6,0.2-0.8c0.1-0.2,0.3-0.4,0.6-0.5c0.3-0.1,0.6-0.2,1.1-0.3c0.6-0.1,1.1-0.2,1.3-0.3v-0.1c0-0.3-0.1-0.5-0.2-0.6
			c-0.1-0.1-0.4-0.2-0.7-0.2c-0.2,0-0.4,0-0.6,0.1S41.7,10.4,41.7,10.7z M43.5,11.8c-0.2,0.1-0.5,0.1-0.8,0.2
			c-0.4,0.1-0.6,0.2-0.8,0.2c-0.2,0.1-0.3,0.3-0.3,0.5c0,0.2,0.1,0.4,0.2,0.5c0.1,0.1,0.3,0.2,0.6,0.2c0.2,0,0.5-0.1,0.7-0.2
			c0.2-0.1,0.3-0.3,0.3-0.5c0-0.1,0.1-0.3,0.1-0.7V11.8z"/>
		<path class="st2" d="M47.5,14.3h-1.4V9.1h1.3v0.7c0.2-0.4,0.4-0.6,0.6-0.7C48.2,9,48.4,9,48.6,9c0.3,0,0.6,0.1,0.9,0.3l-0.4,1.2
			c-0.2-0.2-0.4-0.2-0.6-0.2c-0.2,0-0.4,0.1-0.5,0.2c-0.1,0.1-0.2,0.3-0.3,0.6c-0.1,0.3-0.1,0.9-0.1,1.7V14.3z"/>
		<path class="st2" d="M53.2,12.7l1.4,0.2c-0.2,0.5-0.5,0.9-0.8,1.2c-0.4,0.3-0.9,0.4-1.4,0.4c-0.9,0-1.6-0.3-2-0.9
			c-0.3-0.5-0.5-1.1-0.5-1.8c0-0.9,0.2-1.5,0.7-2c0.5-0.5,1-0.7,1.7-0.7c0.8,0,1.4,0.3,1.8,0.8c0.4,0.5,0.7,1.3,0.6,2.4h-3.5
			c0,0.4,0.1,0.7,0.3,1c0.2,0.2,0.5,0.3,0.8,0.3c0.2,0,0.4-0.1,0.5-0.2C53,13.1,53.1,12.9,53.2,12.7z M53.2,11.3
			c0-0.4-0.1-0.7-0.3-0.9c-0.2-0.2-0.4-0.3-0.7-0.3c-0.3,0-0.6,0.1-0.7,0.3c-0.2,0.2-0.3,0.5-0.3,0.9H53.2z"/>
	</g>
</g>
</svg>
