<?xml version="1.0" encoding="utf-8"?>
<!-- Generator: Adobe Illustrator 21.0.2, SVG Export Plug-In . SVG Version: 6.00 Build 0)  -->
<svg version="1.1" id="Layer_1" xmlns="http://www.w3.org/2000/svg" xmlns:xlink="http://www.w3.org/1999/xlink" x="0px" y="0px"
	 viewBox="0 0 69.2 20.8" style="enable-background:new 0 0 69.2 20.8;" xml:space="preserve">
<style type="text/css">
	.st0{fill:#5FA8DC;}
	.st1{fill:#FFFFFF;}
	.st2{enable-background:new    ;}
</style>
<g>
	<path class="st0" d="M69.2,19.8c0,0.6-0.4,1-1.1,1h-67c-0.6,0-1.1-0.4-1.1-1V1c0-0.6,0.4-1,1.1-1h67c0.6,0,1.1,0.4,1.1,1L69.2,19.8
		L69.2,19.8z"/>
	<g>
		<path class="st1" d="M18.1,7.5c-0.4,0.2-0.8,0.3-1.3,0.3c0.4-0.3,0.8-0.6,1-1.1c-0.4,0.2-0.9,0.4-1.4,0.5c-0.4-0.4-1-0.6-1.5-0.6
			c-1.2,0-2.2,0.9-2.2,2c0,0.2,0,0.3,0.1,0.5c-1.7-0.2-3.4-1-4.4-2.2C8.2,7.3,8.2,7.6,8.2,8c0,0.7,0.4,1.3,1,1.6
			c-0.4,0-0.6-0.1-1-0.3l0,0c0,1,0.8,1.7,1.6,1.9c-0.2,0-0.4,0.1-0.5,0.1c-0.1,0-0.3,0-0.4,0c0.3,0.8,1.1,1.4,1.9,1.4
			c-0.6,0.5-1.6,0.8-2.6,0.8c-0.2,0-0.3,0-0.5,0c1,0.5,2.1,0.9,3.2,0.9c3.9,0,6-3,6-5.6c0-0.1,0-0.2,0-0.3
			C17.4,8.3,17.8,7.9,18.1,7.5z"/>
	</g>
	<g class="st2">
		<path class="st1" d="M29.5,5.3v1.4h-3.1v7.9h-1.9V6.7h-3.1V5.3H29.5z"/>
		<path class="st1" d="M28.6,8H30c0.1,0,0.2,0,0.3,0.1c0.1,0.1,0.2,0.1,0.2,0.2l1,3.5c0.1,0.2,0.1,0.4,0.1,0.6
			c0,0.2,0.1,0.4,0.1,0.5c0.1-0.2,0.1-0.4,0.2-0.5c0.1-0.2,0.1-0.4,0.2-0.6l1.2-3.5c0-0.1,0.1-0.2,0.2-0.2C33.5,8,33.6,8,33.8,8h0.8
			c0.1,0,0.2,0,0.3,0.1C34.9,8.2,35,8.2,35,8.3l1.2,3.5c0.1,0.2,0.1,0.4,0.2,0.6c0.1,0.2,0.1,0.4,0.2,0.6c0-0.2,0.1-0.4,0.1-0.6
			c0-0.2,0.1-0.4,0.2-0.6l1.1-3.5c0-0.1,0.1-0.2,0.2-0.2C38.1,8.1,38.2,8,38.3,8h1.3l-2.3,6.6h-1.4c-0.2,0-0.3-0.1-0.3-0.3l-1.3-3.8
			c-0.1-0.3-0.2-0.5-0.2-0.8C34,10,34,10.3,33.9,10.6l-1.3,3.8c-0.1,0.2-0.2,0.3-0.4,0.3h-1.3L28.6,8z"/>
		<path class="st1" d="M43.5,7.9c0.5,0,0.9,0.1,1.3,0.2c0.4,0.1,0.7,0.3,1,0.6C46,9,46.2,9.3,46.4,9.6c0.2,0.4,0.2,0.8,0.2,1.3
			c0,0.2,0,0.4-0.1,0.5s-0.2,0.1-0.3,0.1h-4.5c0,0.3,0.1,0.6,0.2,0.9c0.1,0.2,0.2,0.5,0.4,0.6s0.4,0.3,0.6,0.4
			c0.2,0.1,0.5,0.1,0.8,0.1c0.3,0,0.5,0,0.7-0.1c0.2-0.1,0.4-0.1,0.5-0.2c0.2-0.1,0.3-0.1,0.4-0.2c0.1-0.1,0.2-0.1,0.3-0.1
			c0.2,0,0.3,0,0.3,0.2l0.5,0.6c-0.2,0.2-0.4,0.4-0.6,0.5s-0.5,0.3-0.7,0.3s-0.5,0.1-0.8,0.2c-0.3,0-0.5,0-0.8,0
			c-0.5,0-1-0.1-1.4-0.2c-0.4-0.2-0.8-0.4-1.1-0.7c-0.3-0.3-0.6-0.7-0.8-1.1c-0.2-0.4-0.3-1-0.3-1.5c0-0.5,0.1-0.9,0.2-1.3
			s0.4-0.7,0.7-1c0.3-0.3,0.7-0.5,1.1-0.7C42.5,8,43,7.9,43.5,7.9z M43.5,9.1c-0.5,0-0.9,0.1-1.2,0.4c-0.3,0.3-0.5,0.6-0.5,1.1h3.3
			c0-0.2,0-0.4-0.1-0.6c-0.1-0.2-0.2-0.3-0.3-0.5c-0.1-0.1-0.3-0.2-0.5-0.3C44,9.1,43.8,9.1,43.5,9.1z"/>
		<path class="st1" d="M51,7.9c0.5,0,0.9,0.1,1.3,0.2c0.4,0.1,0.7,0.3,1,0.6c0.3,0.3,0.5,0.6,0.6,0.9c0.2,0.4,0.2,0.8,0.2,1.3
			c0,0.2,0,0.4-0.1,0.5c-0.1,0.1-0.2,0.1-0.3,0.1h-4.4c0,0.3,0.1,0.6,0.2,0.9c0.1,0.2,0.2,0.5,0.4,0.6c0.2,0.2,0.4,0.3,0.6,0.4
			c0.2,0.1,0.5,0.1,0.8,0.1s0.5,0,0.7-0.1c0.2-0.1,0.4-0.1,0.5-0.2c0.2-0.1,0.3-0.1,0.4-0.2c0.1-0.1,0.2-0.1,0.3-0.1
			c0.2,0,0.3,0,0.3,0.2l0.5,0.6c-0.2,0.2-0.4,0.4-0.6,0.5c-0.2,0.1-0.5,0.3-0.7,0.3c-0.3,0.1-0.5,0.1-0.8,0.2s-0.5,0-0.8,0
			c-0.5,0-1-0.1-1.4-0.2c-0.4-0.2-0.8-0.4-1.1-0.7c-0.3-0.3-0.6-0.7-0.8-1.1c-0.2-0.4-0.3-1-0.3-1.5c0-0.5,0.1-0.9,0.2-1.3
			c0.2-0.4,0.4-0.7,0.7-1c0.3-0.3,0.7-0.5,1.1-0.7C50,8,50.5,7.9,51,7.9z M51,9.1c-0.5,0-0.9,0.1-1.2,0.4c-0.3,0.3-0.5,0.6-0.5,1.1
			h3.3c0-0.2,0-0.4-0.1-0.6c-0.1-0.2-0.2-0.3-0.3-0.5c-0.1-0.1-0.3-0.2-0.5-0.3C51.5,9.1,51.3,9.1,51,9.1z"/>
		<path class="st1" d="M57.7,14.7c-0.6,0-1.1-0.2-1.4-0.5c-0.3-0.3-0.5-0.8-0.5-1.3V9.2h-0.7c-0.1,0-0.2,0-0.2-0.1
			c-0.1-0.1-0.1-0.1-0.1-0.3V8.2l1.2-0.2l0.4-1.8c0-0.1,0.1-0.2,0.1-0.2C56.4,6,56.5,6,56.6,6h0.9v2.1h1.9v1.1h-1.9v3.6
			c0,0.2,0.1,0.4,0.2,0.5s0.3,0.2,0.5,0.2c0.1,0,0.2,0,0.3,0c0.1,0,0.1,0,0.2-0.1c0.1,0,0.1,0,0.1-0.1c0,0,0.1,0,0.1,0
			c0.1,0,0.1,0,0.1,0c0,0,0.1,0.1,0.1,0.1l0.5,0.8c-0.3,0.2-0.5,0.3-0.9,0.4C58.4,14.7,58.1,14.7,57.7,14.7z"/>
	</g>
</g>
</svg>
