<?xml version="1.0" encoding="utf-8"?>
<!-- Generator: Adobe Illustrator 19.1.0, SVG Export Plug-In . SVG Version: 6.00 Build 0)  -->
<!DOCTYPE svg PUBLIC "-//W3C//DTD SVG 1.1//EN" "http://www.w3.org/Graphics/SVG/1.1/DTD/svg11.dtd">
<svg version="1.1" id="Layer_1" xmlns="http://www.w3.org/2000/svg" xmlns:xlink="http://www.w3.org/1999/xlink" x="0px" y="0px"
	 viewBox="0 0 30 30" style="enable-background:new 0 0 30 30;" xml:space="preserve">
<style type="text/css">
	.st0{fill:#595A65;}
</style>
<g>
	<path class="st0" d="M10.4,8l2-6h-1.8L9.6,6.1H9.5L8.4,2H6.6l2.1,6.2v4h1.7V8z M15.5,10.5c0,0.2-0.1,0.3-0.2,0.5
		c-0.1,0.1-0.3,0.2-0.5,0.2c-0.2,0-0.4-0.1-0.5-0.2c-0.1-0.1-0.2-0.3-0.2-0.5V6.4c0-0.2,0.1-0.3,0.2-0.4c0.1-0.1,0.3-0.2,0.5-0.2
		c0.2,0,0.4,0,0.5,0.2c0.1,0.1,0.2,0.2,0.2,0.4V10.5z M16.4,11.9c0.4-0.4,0.6-0.9,0.6-1.5V6.5c0-0.6-0.2-1-0.6-1.4
		c-0.4-0.4-0.9-0.6-1.6-0.6c-0.7,0-1.3,0.2-1.7,0.5c-0.4,0.3-0.6,0.8-0.6,1.4v3.9c0,0.7,0.2,1.1,0.6,1.5c0.4,0.4,1,0.6,1.6,0.6
		C15.5,12.4,16.1,12.3,16.4,11.9 M21.1,12.2h1.5V4.7h-1.5v5.7c-0.1,0.2-0.3,0.3-0.5,0.4c-0.2,0.1-0.3,0.2-0.4,0.2
		c-0.1,0-0.2,0-0.3-0.1c-0.1-0.1-0.1-0.2-0.1-0.4V4.7h-1.5V11c0,0.5,0.1,0.8,0.3,1c0.2,0.2,0.5,0.3,0.8,0.3c0.3,0,0.6-0.1,0.9-0.2
		c0.3-0.2,0.6-0.4,0.9-0.7V12.2z M18,24.5c0.1-0.1,0.1-0.2,0.1-0.5v-3.5c0-0.2,0-0.4-0.2-0.5c-0.1-0.1-0.2-0.2-0.4-0.2
		c-0.1,0-0.2,0-0.3,0.1c-0.1,0-0.2,0.1-0.3,0.2v4.3c0.1,0.1,0.2,0.2,0.3,0.2c0.1,0,0.2,0.1,0.3,0.1C17.8,24.7,17.9,24.6,18,24.5
		 M21.7,21.3h1.2v-0.7c0-0.3,0-0.5-0.1-0.6c-0.1-0.1-0.2-0.2-0.5-0.2c-0.2,0-0.4,0.1-0.5,0.2c-0.1,0.1-0.1,0.3-0.1,0.6V21.3z
		 M24.3,23.7c0,0.7-0.2,1.2-0.5,1.6c-0.3,0.4-0.8,0.5-1.5,0.5c-0.6,0-1.1-0.2-1.5-0.6c-0.3-0.4-0.5-0.9-0.5-1.6v-3.1
		c0-0.6,0.2-1.1,0.6-1.5c0.4-0.4,0.9-0.6,1.5-0.6c0.6,0,1.1,0.2,1.4,0.5c0.3,0.3,0.5,0.8,0.5,1.5v1.8h-2.6v1.3c0,0.4,0,0.6,0.1,0.7
		c0.1,0.2,0.3,0.2,0.5,0.2c0.2,0,0.4-0.1,0.5-0.2c0.1-0.1,0.1-0.4,0.1-0.8v-0.3h1.4V23.7z M19.5,24.2c0,0.5-0.1,0.9-0.3,1.1
		c-0.2,0.3-0.5,0.4-0.9,0.4c-0.3,0-0.5,0-0.7-0.1c-0.2-0.1-0.4-0.3-0.6-0.5v0.5h-1.4v-9.3H17v3c0.2-0.2,0.4-0.4,0.6-0.5
		c0.2-0.1,0.4-0.2,0.6-0.2c0.4,0,0.8,0.2,1,0.4c0.2,0.3,0.3,0.7,0.3,1.3V24.2z M14.6,25.6h-1.4v-0.8c-0.2,0.3-0.5,0.5-0.8,0.6
		c-0.3,0.2-0.5,0.2-0.8,0.2c-0.3,0-0.6-0.1-0.7-0.3c-0.2-0.2-0.2-0.5-0.2-0.9v-5.7H12v5.3c0,0.1,0,0.3,0.1,0.3
		c0,0.1,0.2,0.1,0.3,0.1c0.1,0,0.2,0,0.4-0.2c0.2-0.1,0.3-0.2,0.4-0.4v-5.2h1.4V25.6z M10.1,17.7H8.5v7.9H6.9v-7.9H5.3v-1.3h4.7
		V17.7z M30,23.4V19c0-2.4-1.9-4.3-4.3-4.3H4.3C1.9,14.7,0,16.6,0,19v4.4c0,2.4,1.9,4.3,4.3,4.3h21.5C28.1,27.7,30,25.7,30,23.4"/>
</g>
</svg>
